<svg id="Layer_1" data-name="Layer 1" xmlns="http://www.w3.org/2000/svg" xmlns:xlink="http://www.w3.org/1999/xlink" viewBox="0 0 418.53 455.56"><defs><style>.cls-1{fill:url(#linear-gradient);}.cls-2{fill:url(#linear-gradient-2);}.cls-3{fill:url(#linear-gradient-3);}.cls-4{fill:url(#linear-gradient-4);}.cls-5{fill:url(#linear-gradient-5);}.cls-6{fill:url(#linear-gradient-6);}.cls-7{fill:url(#linear-gradient-7);}.cls-8{fill:url(#linear-gradient-8);}.cls-9{fill:url(#linear-gradient-9);}</style><linearGradient id="linear-gradient" x1="19.22" y1="58.13" x2="98.13" y2="58.13" gradientUnits="userSpaceOnUse"><stop offset="0" stop-color="#fff200"/><stop offset="1" stop-color="#ee2a7b"/></linearGradient><linearGradient id="linear-gradient-2" x1="32.28" y1="97.91" x2="161.74" y2="97.91" xlink:href="#linear-gradient"/><linearGradient id="linear-gradient-3" x1="48.87" y1="165.4" x2="216" y2="165.4" xlink:href="#linear-gradient"/><linearGradient id="linear-gradient-4" x1="50.75" y1="222.54" x2="297.05" y2="222.54" xlink:href="#linear-gradient"/><linearGradient id="linear-gradient-5" x1="114.72" y1="249.24" x2="359.63" y2="249.24" xlink:href="#linear-gradient"/><linearGradient id="linear-gradient-6" x1="195.89" y1="271.22" x2="379.25" y2="271.22" xlink:href="#linear-gradient"/><linearGradient id="linear-gradient-7" x1="253.12" y1="277.59" x2="401.86" y2="277.59" xlink:href="#linear-gradient"/><linearGradient id="linear-gradient-8" x1="330.21" y1="321.6" x2="437.74" y2="321.6" xlink:href="#linear-gradient"/><linearGradient id="linear-gradient-9" x1="367.27" y1="422.77" x2="437.73" y2="422.77" xlink:href="#linear-gradient"/></defs><title>background</title><path class="cls-1" d="M19.22,104.27A528.54,528.54,0,0,1,62,43.26C72.1,30.75,83.33,18.33,98.13,12" transform="translate(-19.22 -11.99)"/><path class="cls-2" d="M32.28,182.52c36.32-61.43,75.06-123,129.46-169.22" transform="translate(-19.22 -11.99)"/><path class="cls-3" d="M48.87,297.74A835.36,835.36,0,0,1,204.56,39.79c3.05-3.44,6.87-7.16,11.44-6.69" transform="translate(-19.22 -11.99)"/><path class="cls-4" d="M50.75,421c14.55-45.31,36.89-87.64,59.12-129.72,28.49-53.91,57.07-108,92.19-157.83a716.62,716.62,0,0,1,95-109.4" transform="translate(-19.22 -11.99)"/><path class="cls-5" d="M114.72,460.32c1.5-29.27,11.54-57.42,23.1-84.35,28.36-66.08,66.36-127.54,105.65-187.77,11.72-18,23.58-35.88,36.71-52.86C285,129.08,290,123,295,116.82L318.55,88c13.62-16.68,27.25-33.36,41.08-49.87" transform="translate(-19.22 -11.99)"/><path class="cls-6" d="M195.89,467.55c6.21-60.29,27.27-118.16,53.18-172.95s56.78-107.09,84.13-161.17c3.48-6.88,6.92-13.81,11.31-20.15,9.83-14.21,24-24.86,34.74-38.39" transform="translate(-19.22 -11.99)"/><path class="cls-7" d="M253.12,438.27A1445.37,1445.37,0,0,1,401.86,116.91" transform="translate(-19.22 -11.99)"/><path class="cls-8" d="M330.21,421.74A658.81,658.81,0,0,1,437.74,221.46" transform="translate(-19.22 -11.99)"/><path class="cls-9" d="M367.27,458.4c20.6-26.54,41.83-53.67,70.46-71.26" transform="translate(-19.22 -11.99)"/></svg>